<?xml version="1.0" standalone="no"?>
<!DOCTYPE svg PUBLIC "-//W3C//DTD SVG 20010904//EN"
 "http://www.w3.org/TR/2001/REC-SVG-20010904/DTD/svg10.dtd">
<svg version="1.0" xmlns="http://www.w3.org/2000/svg"
 width="1024.000000pt" height="1024.000000pt" viewBox="0 0 1024.000000 1024.000000"
 preserveAspectRatio="xMidYMid meet">
<metadata>
Created by potrace 1.11, written by Peter Selinger 2001-2013
</metadata>
<g transform="translate(0.000000,1024.000000) scale(0.100000,-0.100000)"
fill="#000000" stroke="none">
<path d="M785 10233 c-198 -25 -400 -126 -536 -270 -117 -123 -175 -229 -226
-413 -17 -62 -18 -250 -18 -4430 0 -4180 1 -4368 18 -4430 54 -194 125 -317
253 -441 111 -107 230 -174 382 -217 l97 -27 4365 0 4365 0 97 27 c319 89 551
330 634 658 19 73 19 181 19 4435 0 4175 -1 4363 -18 4425 -41 149 -85 240
-163 340 -119 155 -287 267 -479 322 l-80 23 -4340 1 c-2387 1 -4353 -1 -4370
-3z m4720 -1802 c683 -76 1215 -305 1589 -684 299 -304 464 -639 533 -1087 17
-106 18 -224 18 -1540 0 -1316 -1 -1434 -18 -1540 -69 -449 -242 -799 -537
-1091 -342 -338 -791 -553 -1355 -648 -267 -45 -312 -46 -1705 -46 l-1325 0
-35 22 c-20 12 -46 40 -58 61 l-22 40 0 3202 0 3203 25 43 c27 45 49 62 100
75 49 12 2674 3 2790 -10z"/>
<path d="M4205 7088 c-11 -6 -23 -16 -27 -22 -4 -6 -8 -882 -8 -1946 1 -1710
2 -1937 16 -1955 14 -19 28 -20 507 -23 291 -2 531 1 589 7 355 38 604 249
721 611 63 194 62 164 62 1390 l0 1115 -23 105 c-48 215 -118 349 -256 485
-50 50 -120 107 -156 128 -87 50 -231 95 -343 107 -134 14 -1057 12 -1082 -2z"/>
</g>
</svg>
