<?xml version="1.0" standalone="no"?>
<!DOCTYPE svg PUBLIC "-//W3C//DTD SVG 20010904//EN"
 "http://www.w3.org/TR/2001/REC-SVG-20010904/DTD/svg10.dtd">
<svg version="1.0" xmlns="http://www.w3.org/2000/svg"
 width="1400.000000pt" height="1400.000000pt" viewBox="0 0 1400.000000 1400.000000"
 preserveAspectRatio="xMidYMid meet">
<metadata>
Created by potrace 1.11, written by Peter Selinger 2001-2013
</metadata>
<g transform="translate(0.000000,1400.000000) scale(0.100000,-0.100000)"
fill="#000000" stroke="none">
<path d="M6400 12360 l0 -40 -40 0 -40 0 0 -40 0 -40 -132 -1 c-73 0 -153 0
-178 1 -44 2 -44 1 -27 -17 25 -28 22 -63 -5 -63 -12 0 -30 7 -40 17 -17 15
-18 15 -18 0 0 -14 -12 -17 -80 -17 l-80 0 0 40 0 40 -40 0 -40 0 0 40 0 40
-80 0 -80 0 0 -40 c0 -38 -1 -40 -32 -41 -18 -1 -36 -1 -40 0 -5 0 -8 -17 -8
-39 l0 -40 -57 -1 c-32 -1 -68 -1 -80 -2 -20 0 -23 -5 -23 -38 l0 -39 -92 -2
c-51 0 -104 -1 -118 0 -23 1 -23 1 -5 -8 19 -8 19 -9 -2 -9 -19 -1 -23 -7 -23
-31 0 -28 -2 -30 -40 -30 l-40 0 0 -40 c0 -31 -4 -40 -17 -40 -10 -1 -101 0
-201 0 l-184 1 4 -50 c2 -32 0 -47 -6 -41 -12 12 -27 13 -24 3 4 -15 -23 -54
-33 -48 -5 4 -12 -1 -15 -9 -4 -11 -19 -16 -45 -16 l-39 0 0 -80 0 -80 -40 0
-40 0 0 -40 c0 -35 -3 -40 -22 -40 -13 -1 -103 0 -200 0 l-178 1 0 -81 c0 -57
-4 -80 -12 -81 -7 -1 -43 0 -80 1 l-68 2 0 -41 0 -41 -41 0 -40 0 1 -57 c3
-98 0 -129 -8 -115 -5 7 -22 12 -39 10 l-30 -2 -1 -91 c-1 -160 3 -145 -42
-145 l-40 0 0 80 0 81 -120 -2 -120 -1 0 -39 c0 -39 0 -39 -41 -39 -38 0 -40
-2 -39 -27 4 -50 2 -53 -41 -53 -38 0 -40 -2 -39 -27 1 -16 2 -88 1 -160 -1
-129 -2 -133 -22 -133 -18 0 -19 -2 -9 -15 11 -13 10 -14 -4 -9 -9 3 -16 10
-16 15 0 5 -7 9 -15 9 -8 0 -15 -5 -15 -11 0 -5 4 -7 10 -4 5 3 10 1 10 -4 0
-6 -5 -11 -10 -11 -6 0 -10 -55 -9 -147 0 -82 0 -165 0 -185 l-1 -38 -120 0
-121 0 1 -197 c0 -109 1 -235 0 -280 l0 -83 -36 0 c-28 0 -35 -3 -30 -15 18
-44 18 -51 2 -31 -14 17 -15 10 -13 -88 1 -58 3 -102 5 -97 2 5 17 4 37 -2 32
-9 35 -14 35 -49 l0 -38 -120 0 -120 0 1 -120 0 -120 40 0 c39 0 39 0 39 -40
0 -28 -4 -40 -14 -40 -8 0 -17 -6 -20 -12 -5 -10 -7 -10 -12 0 -7 15 -34 16
-34 1 0 -5 5 -7 10 -4 6 3 10 1 10 -4 0 -6 -4 -11 -10 -11 -6 0 -10 -28 -10
-65 l0 -65 40 0 40 0 0 -40 0 -40 -40 0 -40 0 0 -160 0 -160 -40 0 c-40 0 -40
0 -40 38 l0 39 -80 1 -80 2 0 -80 0 -80 40 0 40 0 0 -40 0 -41 116 2 c63 0
117 -1 120 -3 6 -7 6 -489 0 -496 -3 -3 -6 -1 -6 5 0 6 -16 11 -35 11 -28 0
-35 -4 -35 -20 0 -12 4 -17 12 -12 8 5 9 2 3 -12 -5 -10 -11 -79 -13 -152 -3
-100 0 -137 10 -149 7 -9 8 -14 2 -10 -7 4 -11 -2 -11 -17 0 -18 5 -23 23 -23
14 0 21 4 17 10 -3 6 4 3 16 -5 22 -16 23 -20 21 -212 -1 -170 1 -196 15 -196
8 0 15 -7 15 -15 0 -8 -7 -15 -15 -15 -9 0 -15 -9 -15 -25 0 -20 4 -24 25 -23
14 1 25 8 25 15 0 7 7 13 15 13 8 0 15 -7 15 -16 0 -12 9 -15 38 -14 20 1 61
2 90 1 45 -1 52 -4 52 -21 0 -11 -4 -20 -10 -20 -5 0 -10 -9 -10 -20 0 -11 5
-20 10 -20 6 0 10 9 10 20 0 16 7 20 30 20 l30 0 1 -127 c1 -71 1 -134 0 -141
-2 -8 7 -13 21 -12 54 5 58 2 58 -40 l0 -40 40 0 40 0 0 -40 0 -40 40 0 40 0
0 -120 0 -120 40 0 40 0 0 -40 c0 -40 0 -40 39 -40 39 0 40 -1 43 -37 l3 -38
55 -2 c30 -1 65 -2 78 -2 19 -1 22 -6 22 -45 0 -40 2 -44 23 -40 l22 5 -22
-10 c-16 -7 -21 -18 -21 -40 1 -33 7 -38 26 -19 9 9 12 9 12 0 0 -7 6 -12 13
-11 6 1 35 1 63 0 l51 -1 -4 -40 -4 -40 81 0 80 0 0 -30 c0 -17 3 -29 8 -29
24 4 33 -4 12 -12 -24 -8 -24 -8 5 -7 17 0 54 0 83 -1 l52 -1 0 -40 0 -40 40
0 40 0 0 -40 0 -40 43 0 43 0 -4 -40 -4 -40 81 0 c45 0 80 3 80 8 -1 4 -1 22
0 40 1 31 2 32 44 32 43 0 43 -1 39 -30 -3 -21 0 -30 9 -30 11 0 11 -2 1 -9
-7 -4 76 -9 184 -9 109 -1 200 -4 202 -7 3 -2 5 -101 4 -220 0 -161 3 -213 11
-208 7 4 6 -1 -2 -10 -11 -14 -11 -17 0 -17 9 0 10 -3 3 -8 -7 -4 -10 -52 -10
-130 l1 -122 -43 0 -44 0 2 -37 c1 -21 2 -57 1 -80 -1 -42 -2 -43 -35 -43 -42
0 -49 -15 -45 -98 l3 -57 -42 -3 -42 -3 0 -119 0 -120 178 1 c97 0 187 0 200
-1 19 0 22 -5 22 -42 0 -24 4 -38 8 -33 9 13 35 18 27 5 -3 -5 1 -10 10 -10
10 0 14 5 9 13 -6 10 -4 10 7 0 7 -7 32 -13 56 -13 l43 0 0 -40 c0 -40 1 -41
33 -39 17 1 53 1 80 0 l47 -1 0 -40 c0 -45 18 -53 54 -23 20 17 20 17 6 0 -13
-17 -12 -19 5 -17 11 1 37 2 58 1 36 -1 37 -2 37 -41 l0 -40 80 0 c86 0 87 -1
80 -63 -1 -10 4 -17 12 -16 7 1 43 1 81 0 l67 -1 0 -41 0 -41 38 4 c37 3 37 3
40 -39 3 -40 4 -41 38 -41 43 0 43 1 46 -44 1 -20 4 -36 7 -36 4 0 39 0 79 -1
l72 -1 0 -40 0 -40 40 0 40 0 0 -40 0 -40 40 0 40 0 0 -40 0 -40 40 0 40 0 0
-40 0 -40 40 0 40 0 0 -41 c0 -36 3 -40 23 -39 50 4 57 1 57 -30 0 -17 5 -30
13 -30 8 0 7 -4 -3 -11 -13 -9 -13 -10 0 -8 8 1 29 1 45 0 29 -1 30 -3 28 -43
-1 -30 1 -38 7 -28 7 10 10 11 10 3 0 -8 13 -13 30 -13 28 0 30 -2 30 -40 l0
-40 40 0 40 0 0 -40 0 -40 40 0 40 0 0 -40 c0 -38 2 -40 30 -40 17 0 30 5 30
13 1 6 7 1 14 -12 8 -14 12 -37 9 -53 -4 -27 -3 -28 36 -28 l41 0 0 -40 0 -40
40 0 40 0 0 -40 0 -40 40 0 c29 0 40 -4 40 -15 0 -8 8 -15 18 -15 16 -1 16 -1
0 -11 -28 -16 -21 -27 22 -34 23 -4 40 -12 40 -20 0 -7 6 -16 13 -18 10 -4 10
-6 0 -6 -7 -1 -13 -6 -13 -12 0 -5 6 -7 12 -3 9 5 9 2 -1 -9 -12 -16 -7 -17
68 -17 l81 0 0 -40 0 -40 40 0 40 0 0 -41 c0 -38 2 -40 28 -39 49 4 52 1 52
-39 l0 -40 40 2 c29 2 40 -1 40 -11 0 -12 3 -12 16 -1 14 12 16 11 12 -6 -2
-11 -10 -19 -16 -17 -7 1 -12 -2 -12 -8 0 -5 5 -10 10 -10 6 0 10 -5 10 -11 0
-5 -4 -7 -10 -4 -5 3 -10 2 -10 -3 0 -5 11 -9 25 -9 13 0 23 4 22 10 -1 6 7
13 18 15 17 4 18 2 6 -12 -9 -10 -10 -16 -2 -16 6 0 11 -17 11 -40 0 -28 4
-40 14 -40 8 0 17 6 19 13 4 10 6 10 6 0 1 -9 20 -13 61 -13 l60 0 0 40 0 40
40 0 40 0 0 80 0 80 40 0 40 0 0 80 0 80 40 0 c41 0 52 14 28 38 -10 10 -10
14 0 21 8 4 13 14 12 22 -1 8 -2 47 -1 87 l1 72 41 0 c36 0 40 3 39 23 -1 12
-2 48 -1 80 l1 57 39 0 c37 0 40 2 39 28 0 15 0 51 1 80 1 48 3 52 26 52 14 0
25 5 25 10 0 6 5 10 11 10 5 0 7 -4 4 -10 -3 -5 -1 -10 4 -10 15 0 14 13 -1
29 -10 11 -10 13 0 7 9 -6 12 17 12 98 l0 106 40 0 c27 0 40 4 39 12 -1 7 -1
43 0 81 1 52 4 67 16 67 20 0 19 16 -1 24 -8 3 -12 11 -8 17 5 8 10 6 16 -5
11 -19 34 -21 42 -3 3 6 3 2 0 -10 -3 -14 -1 -23 6 -23 7 0 10 36 9 116 -1 63
1 117 3 120 3 2 22 5 42 6 l36 1 0 79 0 78 40 0 40 0 0 80 0 80 40 0 40 0 0
-40 0 -40 40 0 40 0 0 -40 c0 -29 4 -40 15 -40 13 0 14 4 4 23 l-12 22 24 -21
c20 -18 38 -22 114 -23 49 -1 91 -4 93 -6 2 -2 4 -20 4 -39 0 -35 1 -36 39
-36 39 0 39 0 39 -40 0 -39 1 -40 36 -40 19 0 42 -7 50 -15 9 -8 11 -15 5 -15
-6 0 -11 -11 -11 -25 l0 -25 160 0 160 0 2 -42 c1 -24 1 -61 0 -83 -1 -29 1
-36 8 -25 6 9 10 10 10 3 0 -8 16 -12 45 -11 25 0 49 -2 52 -6 4 -3 -4 -6 -16
-6 -12 0 -19 -4 -16 -10 4 -6 11 -8 16 -4 14 8 41 -17 35 -32 -3 -7 -1 -16 4
-19 5 -3 11 5 13 17 l4 23 2 -24 c1 -21 5 -23 44 -20 l42 4 -3 -41 -4 -41 321
0 321 -1 0 39 0 39 120 0 c73 0 120 4 120 10 0 6 5 10 11 10 5 0 7 -4 4 -10
-4 -6 5 -10 20 -10 15 0 24 4 20 10 -3 6 3 10 15 10 12 0 19 -4 16 -9 -4 -5
29 -9 74 -10 44 0 79 3 79 7 -1 4 -1 22 0 40 l1 32 105 0 c86 0 103 2 99 14
-4 11 0 13 16 9 15 -4 21 -1 20 8 -7 47 -4 49 80 49 l80 0 0 40 0 40 40 0 40
0 0 40 c0 36 3 40 24 40 13 0 27 6 29 13 4 9 6 9 6 0 1 -7 6 -13 12 -13 7 0
10 15 7 40 l-4 40 43 0 43 0 0 40 0 40 41 0 41 0 -3 43 -4 42 43 -4 42 -3 0
401 0 401 -40 0 -40 0 -1 113 c-1 61 -1 115 0 120 0 4 -2 6 -6 6 -5 -1 -41 -1
-80 0 l-73 1 0 40 0 40 -40 0 c-45 0 -43 -5 -40 98 1 56 -1 62 -18 62 -11 0
-23 -6 -25 -12 -4 -10 -6 -10 -6 0 -1 6 -8 12 -16 12 -12 0 -15 20 -15 120 l0
120 -40 0 -40 0 0 40 0 40 -40 0 -40 0 0 40 0 40 -40 0 -40 0 -1 48 c0 26 -1
122 -1 215 0 110 -3 165 -10 161 -6 -4 -5 2 1 15 8 15 9 21 1 21 -6 0 -8 4 -5
10 4 6 -5 10 -19 10 -16 0 -26 -6 -26 -15 0 -8 -4 -15 -9 -15 -5 0 -9 77 -10
172 -2 173 -5 193 -22 183 -5 -4 -9 1 -9 9 0 9 7 16 15 16 9 0 15 9 15 25 0
18 -5 25 -20 25 -11 0 -20 -5 -20 -11 0 -8 -4 -8 -14 0 -11 9 -15 9 -19 -1 -3
-7 -6 11 -6 40 l-1 52 -40 0 -40 0 0 40 0 40 -40 0 -40 0 0 168 c-1 92 -1 235
-1 319 0 148 -1 152 -22 156 -21 4 -21 4 1 6 13 0 21 5 17 11 -3 5 -12 7 -19
4 -15 -6 -40 21 -32 35 4 5 2 12 -3 15 -5 4 -12 -4 -14 -16 l-4 -23 -2 23 c-1
19 -7 22 -41 22 l-40 0 0 40 0 40 43 1 c23 1 45 1 49 0 4 0 15 13 25 29 9 17
23 30 30 30 9 0 13 16 13 50 l0 50 40 0 c39 0 40 1 39 33 -1 30 -1 31 -9 7 -8
-24 -8 -23 -9 8 -1 18 3 31 8 28 5 -4 9 46 10 119 0 117 -1 125 -19 125 -11 0
-20 -5 -20 -11 0 -5 5 -7 10 -4 11 7 14 -8 3 -18 -13 -14 -53 44 -53 79 0 33
-1 34 -40 34 l-40 0 0 40 0 40 -40 0 -40 0 0 40 c0 40 0 40 -39 40 -39 0 -40
1 -43 38 -3 35 -5 37 -40 40 -38 3 -38 4 -38 47 0 31 -5 47 -17 54 -17 10 -17
10 0 11 11 0 17 8 17 25 0 20 -4 24 -25 23 -15 -2 -25 -9 -25 -18 0 -9 -8 -3
-19 14 -11 17 -18 33 -15 37 2 4 -5 10 -16 14 -11 3 -20 11 -20 18 0 8 3 8 12
-1 16 -16 28 -15 28 3 0 11 -12 15 -44 15 l-43 0 4 40 5 40 -41 0 -41 0 0 40
0 40 -40 0 c-40 0 -40 0 -40 39 0 40 0 40 -42 43 l-42 3 3 59 c2 39 -1 56 -8
51 -6 -3 -11 -1 -11 4 0 6 5 11 10 11 6 0 10 7 10 16 0 14 -3 14 -15 4 -10 -9
-15 -9 -15 -1 0 6 -11 11 -25 11 -22 0 -25 4 -25 40 l0 40 -40 0 -40 0 0 40 0
40 -40 0 -40 0 0 40 0 40 -40 0 -40 0 0 93 c-1 50 -1 240 0 420 0 249 -2 327
-11 321 -8 -5 -9 -3 -3 7 19 30 13 39 -27 39 l-39 0 0 76 c0 57 -3 73 -12 68
-10 -6 -10 -4 0 7 6 7 12 30 12 51 0 38 0 38 -40 38 -25 0 -40 5 -41 13 0 6 0
42 1 80 l1 67 -40 0 -41 0 0 40 0 40 -40 0 -40 0 0 80 0 80 -40 0 -40 0 0 40
0 40 -40 0 c-22 0 -40 5 -40 11 0 5 -6 7 -12 3 -10 -6 -10 -4 0 7 6 7 12 23
12 36 0 17 -6 23 -23 23 -13 0 -29 -6 -36 -12 -9 -9 -12 -9 -7 -1 3 6 1 13 -6
15 -6 2 -11 21 -10 41 1 37 1 37 -38 37 -41 0 -45 6 -41 52 1 9 -3 20 -10 24
-8 4 -9 3 -5 -4 4 -7 2 -12 -3 -12 -6 0 -11 4 -11 9 0 5 -28 9 -62 9 l-63 -1
-3 41 c-3 35 -6 41 -25 40 -54 -2 -57 0 -57 42 l0 40 -40 0 c-38 0 -40 1 -41
33 -1 17 -1 36 0 40 1 5 -20 8 -46 7 -114 -4 -113 -4 -113 40 l0 40 -80 0 -80
0 0 40 0 40 -80 0 -80 0 0 39 0 40 -76 0 c-42 0 -78 2 -80 4 -2 2 -4 56 -5
120 l-1 117 -39 0 -39 0 0 120 0 120 -40 0 -40 0 -1 73 c-1 39 -1 79 0 88 3
34 -18 67 -47 74 -31 6 -48 38 -36 69 5 13 -14 15 -158 15 -268 0 -238 -5
-238 40 l0 40 -137 0 c-76 0 -184 0 -240 1 l-103 0 0 40 0 40 -40 0 -40 0 0
41 0 41 -80 -4 c-67 -2 -80 0 -80 13 0 8 -6 21 -12 28 -10 11 -10 13 0 7 8 -5
12 0 12 13 0 12 -5 21 -11 21 -5 0 -7 -6 -3 -12 6 -10 4 -10 -7 0 -9 8 -55 12
-156 12 l-143 0 0 -40z m470 -100 c0 -5 -7 -7 -15 -4 -8 4 -15 8 -15 10 0 2 7
4 15 4 8 0 15 -4 15 -10z m950 -230 c0 -5 -2 -10 -4 -10 -3 0 -8 5 -11 10 -3
6 -1 10 4 10 6 0 11 -4 11 -10z m67 -162 c-3 -8 -6 -5 -6 6 -1 11 2 17 5 13 3
-3 4 -12 1 -19z m180 -380 c-3 -8 -6 -5 -6 6 -1 11 2 17 5 13 3 -3 4 -12 1
-19z m-4427 -388 c0 -5 -5 -10 -11 -10 -5 0 -7 5 -4 10 3 6 8 10 11 10 2 0 4
-4 4 -10z m4910 -14 c0 -3 -4 -8 -10 -11 -5 -3 -10 -1 -10 4 0 6 5 11 10 11 6
0 10 -2 10 -4z m141 -103 c13 -16 12 -17 -3 -4 -17 13 -22 21 -14 21 2 0 10
-8 17 -17z m-5588 -478 c-3 -9 -8 -14 -10 -11 -3 3 -2 9 2 15 9 16 15 13 8 -4z
m-41 -231 c-6 -12 -9 -7 -9 16 0 23 3 28 9 16 5 -9 5 -23 0 -32z m-35 -150
c-3 -3 -12 -4 -19 -1 -8 3 -5 6 6 6 11 1 17 -2 13 -5z m-27 -18 c0 -2 -8 -10
-17 -17 -16 -13 -17 -12 -4 4 13 16 21 21 21 13z m-410 -1282 c0 -8 -4 -12
-10 -9 -5 3 -10 10 -10 16 0 5 5 9 10 9 6 0 10 -7 10 -16z m7360 -140 c0 -2
-9 0 -20 6 -11 6 -20 13 -20 16 0 2 9 0 20 -6 11 -6 20 -13 20 -16z m24 -30
c3 -8 2 -12 -4 -9 -6 3 -10 10 -10 16 0 14 7 11 14 -7z m-7509 -242 c-3 -3
-11 0 -18 7 -9 10 -8 11 6 5 10 -3 15 -9 12 -12z m215 -262 c0 -5 -7 -10 -15
-10 -8 0 -15 5 -15 10 0 6 7 10 15 10 8 0 15 -4 15 -10z m33 -27 c-7 -2 -19
-2 -25 0 -7 3 -2 5 12 5 14 0 19 -2 13 -5z m8071 -427 c-6 -15 -24 -23 -24
-11 0 8 24 34 28 30 1 -1 0 -10 -4 -19z m-119 -557 c11 -16 1 -19 -13 -3 -7 8
-8 14 -3 14 5 0 13 -5 16 -11z m345 -1270 c0 -17 -4 -28 -10 -24 -5 3 -10 17
-10 31 0 13 5 24 10 24 6 0 10 -14 10 -31z m-7413 -1 c-3 -8 -6 -5 -6 6 -1 11
2 17 5 13 3 -3 4 -12 1 -19z m7420 -140 c-3 -7 -5 -2 -5 12 0 14 2 19 5 13 2
-7 2 -19 0 -25z m-6252 -238 c-3 -5 -11 -10 -16 -10 -6 0 -7 5 -4 10 3 6 11
10 16 10 6 0 7 -4 4 -10z m45 -4 c0 -2 -7 -7 -16 -10 -8 -3 -12 -2 -9 4 6 10
25 14 25 6z m26 -74 c-12 -11 -18 7 -10 30 l8 23 4 -23 c2 -13 1 -26 -2 -30z
m6 -104 c-2 -10 -8 -15 -13 -12 -14 8 -11 31 5 31 8 0 11 -8 8 -19z m15 -83
c0 -8 -4 -15 -9 -15 -10 0 -11 14 -1 23 9 10 10 9 10 -8z m-7 -116 c-7 -11
-14 -18 -17 -15 -3 3 0 12 7 21 18 21 23 19 10 -6z m6487 -121 c-3 -8 -6 -5
-6 6 -1 11 2 17 5 13 3 -3 4 -12 1 -19z m-6520 -110 c-3 -7 -5 -2 -5 12 0 14
2 19 5 13 2 -7 2 -19 0 -25z m6752 -134 c10 -9 10 -13 0 -19 -7 -5 -10 -4 -7
1 6 12 -28 44 -38 36 -4 -4 -4 -1 1 7 7 12 10 12 19 0 7 -8 18 -19 25 -25z
m-6804 -104 c3 -5 1 -10 -4 -10 -6 0 -11 5 -11 10 0 6 2 10 4 10 3 0 8 -4 11
-10z m-61 -115 c-10 -8 -15 -15 -11 -15 9 0 -18 -30 -27 -30 -3 0 -3 8 1 18 7
19 45 53 52 46 3 -2 -4 -11 -15 -19z m46 -331 c0 -8 -19 -13 -24 -6 -3 5 1 9
9 9 8 0 15 -2 15 -3z m562 -226 c-7 -7 -12 -8 -12 -2 0 14 12 26 19 19 2 -3
-1 -11 -7 -17z m646 -374 c-9 -8 25 -42 36 -36 5 3 6 0 2 -7 -5 -8 -14 -5 -31
11 -21 20 -25 38 -8 38 4 0 4 -3 1 -6z m3292 -134 c-8 -5 -22 -10 -30 -10 -13
0 -13 1 0 10 8 5 22 10 30 10 13 0 13 -1 0 -10z m315 -110 c3 -5 1 -10 -4 -10
-6 0 -11 5 -11 10 0 6 2 10 4 10 3 0 8 -4 11 -10z m1460 -40 c7 -12 -12 -12
-40 0 -18 8 -17 9 7 9 15 1 30 -3 33 -9z m-1350 -59 c-6 -5 -25 10 -25 20 0 5
6 4 14 -3 8 -7 12 -15 11 -17z m1028 -8 c-13 -2 -33 -2 -45 0 -13 2 -3 4 22 4
25 0 35 -2 23 -4z m-2317 -89 c-4 -9 -9 -15 -11 -12 -3 3 -3 13 1 22 4 9 9 15
11 12 3 -3 3 -13 -1 -22z m1751 0 c-3 -3 -12 -4 -19 -1 -8 3 -5 6 6 6 11 1 17
-2 13 -5z m-1867 -248 c0 -2 -7 -6 -15 -10 -8 -3 -15 -1 -15 4 0 6 7 10 15 10
8 0 15 -2 15 -4z m-1330 -236 c0 -5 -2 -10 -4 -10 -3 0 -8 5 -11 10 -3 6 -1
10 4 10 6 0 11 -4 11 -10z m1187 -65 c0 -8 -4 -12 -9 -9 -5 3 -6 10 -3 15 9
13 12 11 12 -6z m-87 -230 c-7 -9 -15 -13 -19 -10 -3 3 1 10 9 15 21 14 24 12
10 -5z m-765 -25 c3 -6 -1 -7 -9 -4 -18 7 -21 14 -7 14 6 0 13 -4 16 -10z
m440 -368 c-3 -3 -11 0 -18 7 -9 10 -8 11 6 5 10 -3 15 -9 12 -12z m32 -17 c0
-8 -4 -12 -9 -9 -5 3 -6 10 -3 15 9 13 12 11 12 -6z"/>
<path d="M4500 11826 c0 -8 -6 -17 -12 -20 -7 -3 -4 -5 7 -3 20 2 35 37 16 37
-6 0 -11 -6 -11 -14z"/>
<path d="M10683 7305 c-9 -25 2 -27 22 -5 17 18 17 20 1 20 -9 0 -19 -7 -23
-15z"/>
<path d="M10677 7175 c-4 -8 -3 -16 1 -19 13 -8 35 11 28 23 -10 15 -23 14
-29 -4z"/>
<path d="M9621 3240 c-14 -8 -7 -30 9 -30 11 0 21 28 12 34 -5 3 -14 1 -21 -4z"/>
</g>
</svg>
